<?xml version="1.0" encoding="utf-8" standalone="no"?>
<!DOCTYPE svg PUBLIC "-//W3C//DTD SVG 1.1//EN"
  "http://www.w3.org/Graphics/SVG/1.1/DTD/svg11.dtd">
<svg xmlns:xlink="http://www.w3.org/1999/xlink" width="388.8pt" height="388.8pt" viewBox="0 0 388.8 388.8" xmlns="http://www.w3.org/2000/svg" version="1.1">
 <metadata>
  <rdf:RDF xmlns:dc="http://purl.org/dc/elements/1.1/" xmlns:cc="http://creativecommons.org/ns#" xmlns:rdf="http://www.w3.org/1999/02/22-rdf-syntax-ns#">
   <cc:Work>
    <dc:type rdf:resource="http://purl.org/dc/dcmitype/StillImage"/>
    <dc:date>2026-08-05T14:58:51.181311</dc:date>
    <dc:format>image/svg+xml</dc:format>
    <dc:creator>
     <cc:Agent>
      <dc:title>Matplotlib v3.10.8, https://matplotlib.org/</dc:title>
     </cc:Agent>
    </dc:creator>
   </cc:Work>
  </rdf:RDF>
 </metadata>
 <defs>
  <style type="text/css">*{stroke-linejoin: round; stroke-linecap: butt}</style>
 </defs>
 <g id="figure_1">
  <g id="patch_1">
   <path d="M 0 388.8 
L 388.8 388.8 
L 388.8 -0 
L 0 -0 
L 0 388.8 
z
" style="fill: none"/>
  </g>
  <g id="axes_1">
   <g id="patch_2">
    <path d="M 22.262069 366.537931 
L 65.296552 366.537931 
L 65.296552 323.503448 
L 22.262069 323.503448 
z
" clip-path="url(#paada614c3a)" style="fill: #1a1a1a"/>
   </g>
   <g id="patch_3">
    <path d="M 65.296552 366.537931 
L 108.331034 366.537931 
L 108.331034 323.503448 
L 65.296552 323.503448 
z
" clip-path="url(#paada614c3a)" style="fill: #ffffff"/>
   </g>
   <g id="patch_4">
    <path d="M 108.331034 366.537931 
L 151.365517 366.537931 
L 151.365517 323.503448 
L 108.331034 323.503448 
z
" clip-path="url(#paada614c3a)" style="fill: #1a1a1a"/>
   </g>
   <g id="patch_5">
    <path d="M 151.365517 366.537931 
L 194.4 366.537931 
L 194.4 323.503448 
L 151.365517 323.503448 
z
" clip-path="url(#paada614c3a)" style="fill: #ffffff"/>
   </g>
   <g id="patch_6">
    <path d="M 194.4 366.537931 
L 237.434483 366.537931 
L 237.434483 323.503448 
L 194.4 323.503448 
z
" clip-path="url(#paada614c3a)" style="fill: #1a1a1a"/>
   </g>
   <g id="patch_7">
    <path d="M 237.434483 366.537931 
L 280.468966 366.537931 
L 280.468966 323.503448 
L 237.434483 323.503448 
z
" clip-path="url(#paada614c3a)" style="fill: #ffffff"/>
   </g>
   <g id="patch_8">
    <path d="M 280.468966 366.537931 
L 323.503448 366.537931 
L 323.503448 323.503448 
L 280.468966 323.503448 
z
" clip-path="url(#paada614c3a)" style="fill: #1a1a1a"/>
   </g>
   <g id="patch_9">
    <path d="M 323.503448 366.537931 
L 366.537931 366.537931 
L 366.537931 323.503448 
L 323.503448 323.503448 
z
" clip-path="url(#paada614c3a)" style="fill: #ffffff"/>
   </g>
   <g id="patch_10">
    <path d="M 22.262069 323.503448 
L 65.296552 323.503448 
L 65.296552 280.468966 
L 22.262069 280.468966 
z
" clip-path="url(#paada614c3a)" style="fill: #ffffff"/>
   </g>
   <g id="patch_11">
    <path d="M 65.296552 323.503448 
L 108.331034 323.503448 
L 108.331034 280.468966 
L 65.296552 280.468966 
z
" clip-path="url(#paada614c3a)" style="fill: #1a1a1a"/>
   </g>
   <g id="patch_12">
    <path d="M 108.331034 323.503448 
L 151.365517 323.503448 
L 151.365517 280.468966 
L 108.331034 280.468966 
z
" clip-path="url(#paada614c3a)" style="fill: #ffffff"/>
   </g>
   <g id="patch_13">
    <path d="M 151.365517 323.503448 
L 194.4 323.503448 
L 194.4 280.468966 
L 151.365517 280.468966 
z
" clip-path="url(#paada614c3a)" style="fill: #1a1a1a"/>
   </g>
   <g id="patch_14">
    <path d="M 194.4 323.503448 
L 237.434483 323.503448 
L 237.434483 280.468966 
L 194.4 280.468966 
z
" clip-path="url(#paada614c3a)" style="fill: #ffffff"/>
   </g>
   <g id="patch_15">
    <path d="M 237.434483 323.503448 
L 280.468966 323.503448 
L 280.468966 280.468966 
L 237.434483 280.468966 
z
" clip-path="url(#paada614c3a)" style="fill: #1a1a1a"/>
   </g>
   <g id="patch_16">
    <path d="M 280.468966 323.503448 
L 323.503448 323.503448 
L 323.503448 280.468966 
L 280.468966 280.468966 
z
" clip-path="url(#paada614c3a)" style="fill: #ffffff"/>
   </g>
   <g id="patch_17">
    <path d="M 323.503448 323.503448 
L 366.537931 323.503448 
L 366.537931 280.468966 
L 323.503448 280.468966 
z
" clip-path="url(#paada614c3a)" style="fill: #1a1a1a"/>
   </g>
   <g id="patch_18">
    <path d="M 22.262069 280.468966 
L 65.296552 280.468966 
L 65.296552 237.434483 
L 22.262069 237.434483 
z
" clip-path="url(#paada614c3a)" style="fill: #1a1a1a"/>
   </g>
   <g id="patch_19">
    <path d="M 65.296552 280.468966 
L 108.331034 280.468966 
L 108.331034 237.434483 
L 65.296552 237.434483 
z
" clip-path="url(#paada614c3a)" style="fill: #ffffff"/>
   </g>
   <g id="patch_20">
    <path d="M 108.331034 280.468966 
L 151.365517 280.468966 
L 151.365517 237.434483 
L 108.331034 237.434483 
z
" clip-path="url(#paada614c3a)" style="fill: #1a1a1a"/>
   </g>
   <g id="patch_21">
    <path d="M 151.365517 280.468966 
L 194.4 280.468966 
L 194.4 237.434483 
L 151.365517 237.434483 
z
" clip-path="url(#paada614c3a)" style="fill: #ffffff"/>
   </g>
   <g id="patch_22">
    <path d="M 194.4 280.468966 
L 237.434483 280.468966 
L 237.434483 237.434483 
L 194.4 237.434483 
z
" clip-path="url(#paada614c3a)" style="fill: #1a1a1a"/>
   </g>
   <g id="patch_23">
    <path d="M 237.434483 280.468966 
L 280.468966 280.468966 
L 280.468966 237.434483 
L 237.434483 237.434483 
z
" clip-path="url(#paada614c3a)" style="fill: #ffffff"/>
   </g>
   <g id="patch_24">
    <path d="M 280.468966 280.468966 
L 323.503448 280.468966 
L 323.503448 237.434483 
L 280.468966 237.434483 
z
" clip-path="url(#paada614c3a)" style="fill: #1a1a1a"/>
   </g>
   <g id="patch_25">
    <path d="M 323.503448 280.468966 
L 366.537931 280.468966 
L 366.537931 237.434483 
L 323.503448 237.434483 
z
" clip-path="url(#paada614c3a)" style="fill: #ffffff"/>
   </g>
   <g id="patch_26">
    <path d="M 22.262069 237.434483 
L 65.296552 237.434483 
L 65.296552 194.4 
L 22.262069 194.4 
z
" clip-path="url(#paada614c3a)" style="fill: #ffffff"/>
   </g>
   <g id="patch_27">
    <path d="M 65.296552 237.434483 
L 108.331034 237.434483 
L 108.331034 194.4 
L 65.296552 194.4 
z
" clip-path="url(#paada614c3a)" style="fill: #1a1a1a"/>
   </g>
   <g id="patch_28">
    <path d="M 108.331034 237.434483 
L 151.365517 237.434483 
L 151.365517 194.4 
L 108.331034 194.4 
z
" clip-path="url(#paada614c3a)" style="fill: #ffffff"/>
   </g>
   <g id="patch_29">
    <path d="M 151.365517 237.434483 
L 194.4 237.434483 
L 194.4 194.4 
L 151.365517 194.4 
z
" clip-path="url(#paada614c3a)" style="fill: #1a1a1a"/>
   </g>
   <g id="patch_30">
    <path d="M 194.4 237.434483 
L 237.434483 237.434483 
L 237.434483 194.4 
L 194.4 194.4 
z
" clip-path="url(#paada614c3a)" style="fill: #ffffff"/>
   </g>
   <g id="patch_31">
    <path d="M 237.434483 237.434483 
L 280.468966 237.434483 
L 280.468966 194.4 
L 237.434483 194.4 
z
" clip-path="url(#paada614c3a)" style="fill: #1a1a1a"/>
   </g>
   <g id="patch_32">
    <path d="M 280.468966 237.434483 
L 323.503448 237.434483 
L 323.503448 194.4 
L 280.468966 194.4 
z
" clip-path="url(#paada614c3a)" style="fill: #ffffff"/>
   </g>
   <g id="patch_33">
    <path d="M 323.503448 237.434483 
L 366.537931 237.434483 
L 366.537931 194.4 
L 323.503448 194.4 
z
" clip-path="url(#paada614c3a)" style="fill: #1a1a1a"/>
   </g>
   <g id="patch_34">
    <path d="M 22.262069 194.4 
L 65.296552 194.4 
L 65.296552 151.365517 
L 22.262069 151.365517 
z
" clip-path="url(#paada614c3a)" style="fill: #1a1a1a"/>
   </g>
   <g id="patch_35">
    <path d="M 65.296552 194.4 
L 108.331034 194.4 
L 108.331034 151.365517 
L 65.296552 151.365517 
z
" clip-path="url(#paada614c3a)" style="fill: #ffffff"/>
   </g>
   <g id="patch_36">
    <path d="M 108.331034 194.4 
L 151.365517 194.4 
L 151.365517 151.365517 
L 108.331034 151.365517 
z
" clip-path="url(#paada614c3a)" style="fill: #1a1a1a"/>
   </g>
   <g id="patch_37">
    <path d="M 151.365517 194.4 
L 194.4 194.4 
L 194.4 151.365517 
L 151.365517 151.365517 
z
" clip-path="url(#paada614c3a)" style="fill: #ffffff"/>
   </g>
   <g id="patch_38">
    <path d="M 194.4 194.4 
L 237.434483 194.4 
L 237.434483 151.365517 
L 194.4 151.365517 
z
" clip-path="url(#paada614c3a)" style="fill: #1a1a1a"/>
   </g>
   <g id="patch_39">
    <path d="M 237.434483 194.4 
L 280.468966 194.4 
L 280.468966 151.365517 
L 237.434483 151.365517 
z
" clip-path="url(#paada614c3a)" style="fill: #ffffff"/>
   </g>
   <g id="patch_40">
    <path d="M 280.468966 194.4 
L 323.503448 194.4 
L 323.503448 151.365517 
L 280.468966 151.365517 
z
" clip-path="url(#paada614c3a)" style="fill: #1a1a1a"/>
   </g>
   <g id="patch_41">
    <path d="M 323.503448 194.4 
L 366.537931 194.4 
L 366.537931 151.365517 
L 323.503448 151.365517 
z
" clip-path="url(#paada614c3a)" style="fill: #ffffff"/>
   </g>
   <g id="patch_42">
    <path d="M 22.262069 151.365517 
L 65.296552 151.365517 
L 65.296552 108.331034 
L 22.262069 108.331034 
z
" clip-path="url(#paada614c3a)" style="fill: #ffffff"/>
   </g>
   <g id="patch_43">
    <path d="M 65.296552 151.365517 
L 108.331034 151.365517 
L 108.331034 108.331034 
L 65.296552 108.331034 
z
" clip-path="url(#paada614c3a)" style="fill: #1a1a1a"/>
   </g>
   <g id="patch_44">
    <path d="M 108.331034 151.365517 
L 151.365517 151.365517 
L 151.365517 108.331034 
L 108.331034 108.331034 
z
" clip-path="url(#paada614c3a)" style="fill: #ffffff"/>
   </g>
   <g id="patch_45">
    <path d="M 151.365517 151.365517 
L 194.4 151.365517 
L 194.4 108.331034 
L 151.365517 108.331034 
z
" clip-path="url(#paada614c3a)" style="fill: #1a1a1a"/>
   </g>
   <g id="patch_46">
    <path d="M 194.4 151.365517 
L 237.434483 151.365517 
L 237.434483 108.331034 
L 194.4 108.331034 
z
" clip-path="url(#paada614c3a)" style="fill: #ffffff"/>
   </g>
   <g id="patch_47">
    <path d="M 237.434483 151.365517 
L 280.468966 151.365517 
L 280.468966 108.331034 
L 237.434483 108.331034 
z
" clip-path="url(#paada614c3a)" style="fill: #1a1a1a"/>
   </g>
   <g id="patch_48">
    <path d="M 280.468966 151.365517 
L 323.503448 151.365517 
L 323.503448 108.331034 
L 280.468966 108.331034 
z
" clip-path="url(#paada614c3a)" style="fill: #ffffff"/>
   </g>
   <g id="patch_49">
    <path d="M 323.503448 151.365517 
L 366.537931 151.365517 
L 366.537931 108.331034 
L 323.503448 108.331034 
z
" clip-path="url(#paada614c3a)" style="fill: #1a1a1a"/>
   </g>
   <g id="patch_50">
    <path d="M 22.262069 108.331034 
L 65.296552 108.331034 
L 65.296552 65.296552 
L 22.262069 65.296552 
z
" clip-path="url(#paada614c3a)" style="fill: #1a1a1a"/>
   </g>
   <g id="patch_51">
    <path d="M 65.296552 108.331034 
L 108.331034 108.331034 
L 108.331034 65.296552 
L 65.296552 65.296552 
z
" clip-path="url(#paada614c3a)" style="fill: #ffffff"/>
   </g>
   <g id="patch_52">
    <path d="M 108.331034 108.331034 
L 151.365517 108.331034 
L 151.365517 65.296552 
L 108.331034 65.296552 
z
" clip-path="url(#paada614c3a)" style="fill: #1a1a1a"/>
   </g>
   <g id="patch_53">
    <path d="M 151.365517 108.331034 
L 194.4 108.331034 
L 194.4 65.296552 
L 151.365517 65.296552 
z
" clip-path="url(#paada614c3a)" style="fill: #ffffff"/>
   </g>
   <g id="patch_54">
    <path d="M 194.4 108.331034 
L 237.434483 108.331034 
L 237.434483 65.296552 
L 194.4 65.296552 
z
" clip-path="url(#paada614c3a)" style="fill: #1a1a1a"/>
   </g>
   <g id="patch_55">
    <path d="M 237.434483 108.331034 
L 280.468966 108.331034 
L 280.468966 65.296552 
L 237.434483 65.296552 
z
" clip-path="url(#paada614c3a)" style="fill: #ffffff"/>
   </g>
   <g id="patch_56">
    <path d="M 280.468966 108.331034 
L 323.503448 108.331034 
L 323.503448 65.296552 
L 280.468966 65.296552 
z
" clip-path="url(#paada614c3a)" style="fill: #1a1a1a"/>
   </g>
   <g id="patch_57">
    <path d="M 323.503448 108.331034 
L 366.537931 108.331034 
L 366.537931 65.296552 
L 323.503448 65.296552 
z
" clip-path="url(#paada614c3a)" style="fill: #ffffff"/>
   </g>
   <g id="patch_58">
    <path d="M 22.262069 65.296552 
L 65.296552 65.296552 
L 65.296552 22.262069 
L 22.262069 22.262069 
z
" clip-path="url(#paada614c3a)" style="fill: #ffffff"/>
   </g>
   <g id="patch_59">
    <path d="M 65.296552 65.296552 
L 108.331034 65.296552 
L 108.331034 22.262069 
L 65.296552 22.262069 
z
" clip-path="url(#paada614c3a)" style="fill: #1a1a1a"/>
   </g>
   <g id="patch_60">
    <path d="M 108.331034 65.296552 
L 151.365517 65.296552 
L 151.365517 22.262069 
L 108.331034 22.262069 
z
" clip-path="url(#paada614c3a)" style="fill: #ffffff"/>
   </g>
   <g id="patch_61">
    <path d="M 151.365517 65.296552 
L 194.4 65.296552 
L 194.4 22.262069 
L 151.365517 22.262069 
z
" clip-path="url(#paada614c3a)" style="fill: #1a1a1a"/>
   </g>
   <g id="patch_62">
    <path d="M 194.4 65.296552 
L 237.434483 65.296552 
L 237.434483 22.262069 
L 194.4 22.262069 
z
" clip-path="url(#paada614c3a)" style="fill: #ffffff"/>
   </g>
   <g id="patch_63">
    <path d="M 237.434483 65.296552 
L 280.468966 65.296552 
L 280.468966 22.262069 
L 237.434483 22.262069 
z
" clip-path="url(#paada614c3a)" style="fill: #1a1a1a"/>
   </g>
   <g id="patch_64">
    <path d="M 280.468966 65.296552 
L 323.503448 65.296552 
L 323.503448 22.262069 
L 280.468966 22.262069 
z
" clip-path="url(#paada614c3a)" style="fill: #ffffff"/>
   </g>
   <g id="patch_65">
    <path d="M 323.503448 65.296552 
L 366.537931 65.296552 
L 366.537931 22.262069 
L 323.503448 22.262069 
z
" clip-path="url(#paada614c3a)" style="fill: #1a1a1a"/>
   </g>
   <g id="line2d_1">
    <path d="M 22.262069 366.537931 
L 366.537931 366.537931 
" clip-path="url(#paada614c3a)" style="fill: none; stroke: #1a1a1a; stroke-width: 0.8; stroke-linecap: square"/>
   </g>
   <g id="line2d_2">
    <path d="M 22.262069 366.537931 
L 22.262069 22.262069 
" clip-path="url(#paada614c3a)" style="fill: none; stroke: #1a1a1a; stroke-width: 0.8; stroke-linecap: square"/>
   </g>
   <g id="line2d_3">
    <path d="M 22.262069 323.503448 
L 366.537931 323.503448 
" clip-path="url(#paada614c3a)" style="fill: none; stroke: #1a1a1a; stroke-width: 0.8; stroke-linecap: square"/>
   </g>
   <g id="line2d_4">
    <path d="M 65.296552 366.537931 
L 65.296552 22.262069 
" clip-path="url(#paada614c3a)" style="fill: none; stroke: #1a1a1a; stroke-width: 0.8; stroke-linecap: square"/>
   </g>
   <g id="line2d_5">
    <path d="M 22.262069 280.468966 
L 366.537931 280.468966 
" clip-path="url(#paada614c3a)" style="fill: none; stroke: #1a1a1a; stroke-width: 0.8; stroke-linecap: square"/>
   </g>
   <g id="line2d_6">
    <path d="M 108.331034 366.537931 
L 108.331034 22.262069 
" clip-path="url(#paada614c3a)" style="fill: none; stroke: #1a1a1a; stroke-width: 0.8; stroke-linecap: square"/>
   </g>
   <g id="line2d_7">
    <path d="M 22.262069 237.434483 
L 366.537931 237.434483 
" clip-path="url(#paada614c3a)" style="fill: none; stroke: #1a1a1a; stroke-width: 0.8; stroke-linecap: square"/>
   </g>
   <g id="line2d_8">
    <path d="M 151.365517 366.537931 
L 151.365517 22.262069 
" clip-path="url(#paada614c3a)" style="fill: none; stroke: #1a1a1a; stroke-width: 0.8; stroke-linecap: square"/>
   </g>
   <g id="line2d_9">
    <path d="M 22.262069 194.4 
L 366.537931 194.4 
" clip-path="url(#paada614c3a)" style="fill: none; stroke: #1a1a1a; stroke-width: 0.8; stroke-linecap: square"/>
   </g>
   <g id="line2d_10">
    <path d="M 194.4 366.537931 
L 194.4 22.262069 
" clip-path="url(#paada614c3a)" style="fill: none; stroke: #1a1a1a; stroke-width: 0.8; stroke-linecap: square"/>
   </g>
   <g id="line2d_11">
    <path d="M 22.262069 151.365517 
L 366.537931 151.365517 
" clip-path="url(#paada614c3a)" style="fill: none; stroke: #1a1a1a; stroke-width: 0.8; stroke-linecap: square"/>
   </g>
   <g id="line2d_12">
    <path d="M 237.434483 366.537931 
L 237.434483 22.262069 
" clip-path="url(#paada614c3a)" style="fill: none; stroke: #1a1a1a; stroke-width: 0.8; stroke-linecap: square"/>
   </g>
   <g id="line2d_13">
    <path d="M 22.262069 108.331034 
L 366.537931 108.331034 
" clip-path="url(#paada614c3a)" style="fill: none; stroke: #1a1a1a; stroke-width: 0.8; stroke-linecap: square"/>
   </g>
   <g id="line2d_14">
    <path d="M 280.468966 366.537931 
L 280.468966 22.262069 
" clip-path="url(#paada614c3a)" style="fill: none; stroke: #1a1a1a; stroke-width: 0.8; stroke-linecap: square"/>
   </g>
   <g id="line2d_15">
    <path d="M 22.262069 65.296552 
L 366.537931 65.296552 
" clip-path="url(#paada614c3a)" style="fill: none; stroke: #1a1a1a; stroke-width: 0.8; stroke-linecap: square"/>
   </g>
   <g id="line2d_16">
    <path d="M 323.503448 366.537931 
L 323.503448 22.262069 
" clip-path="url(#paada614c3a)" style="fill: none; stroke: #1a1a1a; stroke-width: 0.8; stroke-linecap: square"/>
   </g>
   <g id="line2d_17">
    <path d="M 22.262069 22.262069 
L 366.537931 22.262069 
" clip-path="url(#paada614c3a)" style="fill: none; stroke: #1a1a1a; stroke-width: 0.8; stroke-linecap: square"/>
   </g>
   <g id="line2d_18">
    <path d="M 366.537931 366.537931 
L 366.537931 22.262069 
" clip-path="url(#paada614c3a)" style="fill: none; stroke: #1a1a1a; stroke-width: 0.8; stroke-linecap: square"/>
   </g>
   <g id="patch_66">
    <path d="M 22.262069 366.537931 
L 366.537931 366.537931 
L 366.537931 22.262069 
L 22.262069 22.262069 
L 22.262069 366.537931 
z
" clip-path="url(#paada614c3a)" style="fill: none; stroke: #1a1a1a; stroke-width: 2.4; stroke-linejoin: miter"/>
   </g>
  </g>
 </g>
 <defs>
  <clipPath id="paada614c3a">
   <rect x="7.2" y="7.2" width="374.4" height="374.4"/>
  </clipPath>
 </defs>
</svg>
