<?xml version="1.0" encoding="utf-8" standalone="no"?>
<!DOCTYPE svg PUBLIC "-//W3C//DTD SVG 1.1//EN"
  "http://www.w3.org/Graphics/SVG/1.1/DTD/svg11.dtd">
<svg xmlns:xlink="http://www.w3.org/1999/xlink" width="271.08pt" height="195.585882pt" viewBox="0 0 271.08 195.585882" xmlns="http://www.w3.org/2000/svg" version="1.1">
 <metadata>
  <rdf:RDF xmlns:dc="http://purl.org/dc/elements/1.1/" xmlns:cc="http://creativecommons.org/ns#" xmlns:rdf="http://www.w3.org/1999/02/22-rdf-syntax-ns#">
   <cc:Work>
    <dc:type rdf:resource="http://purl.org/dc/dcmitype/StillImage"/>
    <dc:date>2026-08-05T00:10:48.882525</dc:date>
    <dc:format>image/svg+xml</dc:format>
    <dc:creator>
     <cc:Agent>
      <dc:title>Matplotlib v3.10.8, https://matplotlib.org/</dc:title>
     </cc:Agent>
    </dc:creator>
   </cc:Work>
  </rdf:RDF>
 </metadata>
 <defs>
  <style type="text/css">*{stroke-linejoin: round; stroke-linecap: butt}</style>
 </defs>
 <g id="figure_1">
  <g id="patch_1">
   <path d="M 0 195.585882 
L 271.08 195.585882 
L 271.08 0 
L 0 0 
L 0 195.585882 
z
" style="fill: none"/>
  </g>
  <g id="axes_1">
   <g id="line2d_1">
    <path d="M 258.217941 97.792941 
L 258.08107 93.782129 
L 257.670762 89.780267 
L 256.987932 85.796284 
L 256.034104 81.83907 
L 254.811407 77.917456 
L 253.322569 74.040191 
L 251.570912 70.215929 
L 249.560344 66.453201 
L 247.295353 62.760405 
L 244.780992 59.14578 
L 242.022871 55.617391 
L 239.027145 52.183113 
L 235.800499 48.850609 
L 232.350133 45.627314 
L 228.683745 42.52042 
L 224.809518 39.536862 
L 220.736095 36.683295 
L 216.472566 33.966088 
L 212.028445 31.391304 
L 207.413649 28.964687 
L 202.638474 26.691654 
L 197.713576 24.577275 
L 192.649945 22.626269 
L 187.458879 20.842989 
L 182.151962 19.231414 
L 176.741035 17.795141 
L 171.238173 16.537375 
L 165.655654 15.460921 
L 160.005935 14.568183 
L 154.301624 13.861151 
L 148.555447 13.341404 
L 142.780229 13.010101 
L 136.988854 12.867982 
L 131.194246 12.915364 
L 125.409336 13.152141 
L 119.647031 13.577784 
L 113.920189 14.191345 
L 108.24159 14.991453 
L 102.623904 15.976324 
L 97.079667 17.14376 
L 91.62125 18.491156 
L 86.260832 20.015505 
L 81.010376 21.713405 
L 75.881597 23.581069 
L 70.885939 25.614329 
L 66.034549 27.808647 
L 61.338254 30.159128 
L 56.807531 32.660526 
L 52.452491 35.30726 
L 48.282852 38.093424 
L 44.307918 41.012801 
L 40.536558 44.058877 
L 36.977188 47.224855 
L 33.637751 50.503669 
L 30.525697 53.888005 
L 27.647971 57.370309 
L 25.010994 60.942812 
L 22.620651 64.597543 
L 20.482275 68.326345 
L 18.600638 72.120899 
L 16.979938 75.972737 
L 15.623792 79.873264 
L 14.535226 83.813777 
L 13.716669 87.785484 
L 13.169947 91.77952 
L 12.896281 95.786976 
L 12.896281 99.798907 
L 13.169947 103.806362 
L 13.716669 107.800399 
L 14.535226 111.772105 
L 15.623792 115.712618 
L 16.979938 119.613146 
L 18.600638 123.464984 
L 20.482275 127.259537 
L 22.620651 130.98834 
L 25.010994 134.64307 
L 27.647971 138.215573 
L 30.525697 141.697878 
L 33.637751 145.082213 
L 36.977188 148.361028 
L 40.536558 151.527005 
L 44.307918 154.573081 
L 48.282852 157.492458 
L 52.452491 160.278622 
L 56.807531 162.925356 
L 61.338254 165.426754 
L 66.034549 167.777235 
L 70.885939 169.971553 
L 75.881597 172.004813 
L 81.010376 173.872477 
L 86.260832 175.570378 
L 91.62125 177.094727 
L 97.079667 178.442122 
L 102.623904 179.609558 
L 108.24159 180.594429 
L 113.920189 181.394537 
L 119.647031 182.008098 
L 125.409336 182.433742 
L 131.194246 182.670518 
L 136.988854 182.7179 
L 142.780229 182.575781 
L 148.555447 182.244479 
L 154.301624 181.724731 
L 160.005935 181.0177 
L 165.655654 180.124961 
L 171.238173 179.048508 
L 176.741035 177.790741 
L 182.151962 176.354468 
L 187.458879 174.742894 
L 192.649945 172.959614 
L 197.713576 171.008608 
L 202.638474 168.894229 
L 207.413649 166.621195 
L 212.028445 164.194579 
L 216.472566 161.619794 
L 220.736095 158.902587 
L 224.809518 156.049021 
L 228.683745 153.065462 
L 232.350133 149.958569 
L 235.800499 146.735274 
L 239.027145 143.402769 
L 242.022871 139.968491 
L 244.780992 136.440103 
L 247.295353 132.825478 
L 249.560344 129.132681 
L 251.570912 125.369954 
L 253.322569 121.545691 
L 254.811407 117.668427 
L 256.034104 113.746812 
L 256.987932 109.789598 
L 257.670762 105.805616 
L 258.08107 101.803753 
L 258.217941 97.792941 
L 258.217941 97.792941 
" clip-path="url(#p76b253e71b)" style="fill: none; stroke: #3a3a3a; stroke-width: 1.8; stroke-linecap: square"/>
   </g>
   <g id="line2d_2">
    <path d="M 94.018235 50.609118 
L 71.713078 25.262348 
" clip-path="url(#p76b253e71b)" style="fill: none; stroke: #3a3a3a; stroke-width: 1.8; stroke-linecap: round"/>
   </g>
   <g id="line2d_3">
    <path d="M 63.820588 97.792941 
L 12.862059 97.792941 
" clip-path="url(#p76b253e71b)" style="fill: none; stroke: #3a3a3a; stroke-width: 1.8; stroke-linecap: round"/>
   </g>
   <g id="line2d_4">
    <path d="M 94.018235 144.976765 
L 71.713078 170.323535 
" clip-path="url(#p76b253e71b)" style="fill: none; stroke: #3a3a3a; stroke-width: 1.8; stroke-linecap: round"/>
   </g>
   <g id="line2d_5">
    <path d="M 172.343382 47.778088 
L 191.22668 22.11617 
" clip-path="url(#p76b253e71b)" style="fill: none; stroke: #3a3a3a; stroke-width: 1.8; stroke-linecap: round"/>
   </g>
   <g id="line2d_6">
    <path d="M 210.090441 71.37 
L 244.739325 59.089383 
" clip-path="url(#p76b253e71b)" style="fill: none; stroke: #3a3a3a; stroke-width: 1.8; stroke-linecap: round"/>
   </g>
   <g id="line2d_7">
    <path d="M 210.090441 124.215882 
L 244.739325 136.496499 
" clip-path="url(#p76b253e71b)" style="fill: none; stroke: #3a3a3a; stroke-width: 1.8; stroke-linecap: round"/>
   </g>
   <g id="line2d_8">
    <path d="M 172.343382 147.807794 
L 191.22668 173.469712 
" clip-path="url(#p76b253e71b)" style="fill: none; stroke: #3a3a3a; stroke-width: 1.8; stroke-linecap: round"/>
   </g>
   <g id="patch_2">
    <path d="M 135.54 68.538971 
L 94.018235 50.609118 
L 63.820588 97.792941 
L 94.018235 144.976765 
L 135.54 127.046912 
z
" clip-path="url(#p76b253e71b)" style="fill: #d7d7d0; stroke: #3a3a3a; stroke-width: 2"/>
   </g>
   <g id="patch_3">
    <path d="M 135.54 68.538971 
L 172.343382 47.778088 
L 210.090441 71.37 
L 210.090441 124.215882 
L 172.343382 147.807794 
L 135.54 127.046912 
z
" clip-path="url(#p76b253e71b)" style="fill: #d7d7d0; stroke: #3a3a3a; stroke-width: 2"/>
   </g>
   <g id="line2d_9">
    <defs>
     <path id="md84d0d1f84" d="M 0 3 
C 0.795609 3 1.55874 2.683901 2.12132 2.12132 
C 2.683901 1.55874 3 0.795609 3 0 
C 3 -0.795609 2.683901 -1.55874 2.12132 -2.12132 
C 1.55874 -2.683901 0.795609 -3 0 -3 
C -0.795609 -3 -1.55874 -2.683901 -2.12132 -2.12132 
C -2.683901 -1.55874 -3 -0.795609 -3 0 
C -3 0.795609 -2.683901 1.55874 -2.12132 2.12132 
C -1.55874 2.683901 -0.795609 3 0 3 
z
" style="stroke: #3a3a3a"/>
    </defs>
    <g clip-path="url(#p76b253e71b)">
     <use xlink:href="#md84d0d1f84" x="135.54" y="68.538971" style="fill: #3a3a3a; stroke: #3a3a3a"/>
     <use xlink:href="#md84d0d1f84" x="94.018235" y="50.609118" style="fill: #3a3a3a; stroke: #3a3a3a"/>
     <use xlink:href="#md84d0d1f84" x="63.820588" y="97.792941" style="fill: #3a3a3a; stroke: #3a3a3a"/>
     <use xlink:href="#md84d0d1f84" x="94.018235" y="144.976765" style="fill: #3a3a3a; stroke: #3a3a3a"/>
     <use xlink:href="#md84d0d1f84" x="135.54" y="127.046912" style="fill: #3a3a3a; stroke: #3a3a3a"/>
     <use xlink:href="#md84d0d1f84" x="135.54" y="68.538971" style="fill: #3a3a3a; stroke: #3a3a3a"/>
     <use xlink:href="#md84d0d1f84" x="172.343382" y="47.778088" style="fill: #3a3a3a; stroke: #3a3a3a"/>
     <use xlink:href="#md84d0d1f84" x="210.090441" y="71.37" style="fill: #3a3a3a; stroke: #3a3a3a"/>
     <use xlink:href="#md84d0d1f84" x="210.090441" y="124.215882" style="fill: #3a3a3a; stroke: #3a3a3a"/>
     <use xlink:href="#md84d0d1f84" x="172.343382" y="147.807794" style="fill: #3a3a3a; stroke: #3a3a3a"/>
     <use xlink:href="#md84d0d1f84" x="135.54" y="127.046912" style="fill: #3a3a3a; stroke: #3a3a3a"/>
    </g>
   </g>
  </g>
 </g>
 <defs>
  <clipPath id="p76b253e71b">
   <rect x="7.2" y="7.2" width="256.68" height="181.185882"/>
  </clipPath>
 </defs>
</svg>
