<?xml version="1.0" encoding="utf-8" standalone="no"?>
<!DOCTYPE svg PUBLIC "-//W3C//DTD SVG 1.1//EN"
  "http://www.w3.org/Graphics/SVG/1.1/DTD/svg11.dtd">
<svg xmlns:xlink="http://www.w3.org/1999/xlink" width="370.953191pt" height="468pt" viewBox="0 0 370.953191 468" xmlns="http://www.w3.org/2000/svg" version="1.1">
 <metadata>
  <rdf:RDF xmlns:dc="http://purl.org/dc/elements/1.1/" xmlns:cc="http://creativecommons.org/ns#" xmlns:rdf="http://www.w3.org/1999/02/22-rdf-syntax-ns#">
   <cc:Work>
    <dc:type rdf:resource="http://purl.org/dc/dcmitype/StillImage"/>
    <dc:date>2026-08-05T09:07:19.554965</dc:date>
    <dc:format>image/svg+xml</dc:format>
    <dc:creator>
     <cc:Agent>
      <dc:title>Matplotlib v3.10.8, https://matplotlib.org/</dc:title>
     </cc:Agent>
    </dc:creator>
   </cc:Work>
  </rdf:RDF>
 </metadata>
 <defs>
  <style type="text/css">*{stroke-linejoin: round; stroke-linecap: butt}</style>
 </defs>
 <g id="figure_1">
  <g id="patch_1">
   <path d="M 0 468 
L 370.953191 468 
L 370.953191 0 
L 0 0 
L 0 468 
z
" style="fill: none"/>
  </g>
  <g id="axes_1">
   <g id="patch_2">
    <path d="M -111.651064 -185.821277 
L -53.565957 -185.821277 
L -80.374468 -137.565957 
L -50.885106 -137.565957 
L -24.076596 -89.310638 
L -53.565957 -89.310638 
L -80.374468 -41.055319 
L -50.885106 -41.055319 
L -24.076596 7.2 
L -111.651064 7.2 
z
" clip-path="url(#p8467687d51)" style="fill: #b9b9b1; stroke: #3a3a3a; stroke-width: 1.1"/>
   </g>
   <g id="patch_3">
    <path d="M 7.2 -137.565957 
L -50.885106 -137.565957 
L -24.076596 -89.310638 
L -53.565957 -89.310638 
L -80.374468 -41.055319 
L -50.885106 -41.055319 
L -24.076596 7.2 
L -53.565957 7.2 
L -80.374468 55.455319 
L 7.2 55.455319 
z
" clip-path="url(#p8467687d51)" style="fill: #f4f4f0; stroke: #3a3a3a; stroke-width: 1.1"/>
   </g>
   <g id="patch_4">
    <path d="M 7.2 -185.821277 
L 65.285106 -185.821277 
L 38.476596 -137.565957 
L 67.965957 -137.565957 
L 94.774468 -89.310638 
L 65.285106 -89.310638 
L 38.476596 -41.055319 
L 67.965957 -41.055319 
L 94.774468 7.2 
L 7.2 7.2 
z
" clip-path="url(#p8467687d51)" style="fill: #b9b9b1; stroke: #3a3a3a; stroke-width: 1.1"/>
   </g>
   <g id="patch_5">
    <path d="M 126.051064 -137.565957 
L 67.965957 -137.565957 
L 94.774468 -89.310638 
L 65.285106 -89.310638 
L 38.476596 -41.055319 
L 67.965957 -41.055319 
L 94.774468 7.2 
L 65.285106 7.2 
L 38.476596 55.455319 
L 126.051064 55.455319 
z
" clip-path="url(#p8467687d51)" style="fill: #f4f4f0; stroke: #3a3a3a; stroke-width: 1.1"/>
   </g>
   <g id="patch_6">
    <path d="M 126.051064 -185.821277 
L 184.13617 -185.821277 
L 157.32766 -137.565957 
L 186.817021 -137.565957 
L 213.625532 -89.310638 
L 184.13617 -89.310638 
L 157.32766 -41.055319 
L 186.817021 -41.055319 
L 213.625532 7.2 
L 126.051064 7.2 
z
" clip-path="url(#p8467687d51)" style="fill: #b9b9b1; stroke: #3a3a3a; stroke-width: 1.1"/>
   </g>
   <g id="patch_7">
    <path d="M 244.902128 -137.565957 
L 186.817021 -137.565957 
L 213.625532 -89.310638 
L 184.13617 -89.310638 
L 157.32766 -41.055319 
L 186.817021 -41.055319 
L 213.625532 7.2 
L 184.13617 7.2 
L 157.32766 55.455319 
L 244.902128 55.455319 
z
" clip-path="url(#p8467687d51)" style="fill: #f4f4f0; stroke: #3a3a3a; stroke-width: 1.1"/>
   </g>
   <g id="patch_8">
    <path d="M 244.902128 -185.821277 
L 302.987234 -185.821277 
L 276.178723 -137.565957 
L 305.668085 -137.565957 
L 332.476596 -89.310638 
L 302.987234 -89.310638 
L 276.178723 -41.055319 
L 305.668085 -41.055319 
L 332.476596 7.2 
L 244.902128 7.2 
z
" clip-path="url(#p8467687d51)" style="fill: #b9b9b1; stroke: #3a3a3a; stroke-width: 1.1"/>
   </g>
   <g id="patch_9">
    <path d="M 363.753191 -137.565957 
L 305.668085 -137.565957 
L 332.476596 -89.310638 
L 302.987234 -89.310638 
L 276.178723 -41.055319 
L 305.668085 -41.055319 
L 332.476596 7.2 
L 302.987234 7.2 
L 276.178723 55.455319 
L 363.753191 55.455319 
z
" clip-path="url(#p8467687d51)" style="fill: #f4f4f0; stroke: #3a3a3a; stroke-width: 1.1"/>
   </g>
   <g id="patch_10">
    <path d="M 363.753191 -185.821277 
L 421.838298 -185.821277 
L 395.029787 -137.565957 
L 424.519149 -137.565957 
L 451.32766 -89.310638 
L 421.838298 -89.310638 
L 395.029787 -41.055319 
L 424.519149 -41.055319 
L 451.32766 7.2 
L 363.753191 7.2 
z
" clip-path="url(#p8467687d51)" style="fill: #b9b9b1; stroke: #3a3a3a; stroke-width: 1.1"/>
   </g>
   <g id="patch_11">
    <path d="M 482.604255 -137.565957 
L 424.519149 -137.565957 
L 451.32766 -89.310638 
L 421.838298 -89.310638 
L 395.029787 -41.055319 
L 424.519149 -41.055319 
L 451.32766 7.2 
L 421.838298 7.2 
L 395.029787 55.455319 
L 482.604255 55.455319 
z
" clip-path="url(#p8467687d51)" style="fill: #f4f4f0; stroke: #3a3a3a; stroke-width: 1.1"/>
   </g>
   <g id="patch_12">
    <path d="M -111.651064 7.2 
L -53.565957 7.2 
L -80.374468 55.455319 
L -50.885106 55.455319 
L -24.076596 103.710638 
L -53.565957 103.710638 
L -80.374468 151.965957 
L -50.885106 151.965957 
L -24.076596 200.221277 
L -111.651064 200.221277 
z
" clip-path="url(#p8467687d51)" style="fill: #b9b9b1; stroke: #3a3a3a; stroke-width: 1.1"/>
   </g>
   <g id="patch_13">
    <path d="M 7.2 55.455319 
L -50.885106 55.455319 
L -24.076596 103.710638 
L -53.565957 103.710638 
L -80.374468 151.965957 
L -50.885106 151.965957 
L -24.076596 200.221277 
L -53.565957 200.221277 
L -80.374468 248.476596 
L 7.2 248.476596 
z
" clip-path="url(#p8467687d51)" style="fill: #f4f4f0; stroke: #3a3a3a; stroke-width: 1.1"/>
   </g>
   <g id="patch_14">
    <path d="M 7.2 7.2 
L 65.285106 7.2 
L 38.476596 55.455319 
L 67.965957 55.455319 
L 94.774468 103.710638 
L 65.285106 103.710638 
L 38.476596 151.965957 
L 67.965957 151.965957 
L 94.774468 200.221277 
L 7.2 200.221277 
z
" clip-path="url(#p8467687d51)" style="fill: #b9b9b1; stroke: #3a3a3a; stroke-width: 1.1"/>
   </g>
   <g id="patch_15">
    <path d="M 126.051064 55.455319 
L 67.965957 55.455319 
L 94.774468 103.710638 
L 65.285106 103.710638 
L 38.476596 151.965957 
L 67.965957 151.965957 
L 94.774468 200.221277 
L 65.285106 200.221277 
L 38.476596 248.476596 
L 126.051064 248.476596 
z
" clip-path="url(#p8467687d51)" style="fill: #f4f4f0; stroke: #3a3a3a; stroke-width: 1.1"/>
   </g>
   <g id="patch_16">
    <path d="M 126.051064 7.2 
L 184.13617 7.2 
L 157.32766 55.455319 
L 186.817021 55.455319 
L 213.625532 103.710638 
L 184.13617 103.710638 
L 157.32766 151.965957 
L 186.817021 151.965957 
L 213.625532 200.221277 
L 126.051064 200.221277 
z
" clip-path="url(#p8467687d51)" style="fill: #b9b9b1; stroke: #3a3a3a; stroke-width: 1.1"/>
   </g>
   <g id="patch_17">
    <path d="M 244.902128 55.455319 
L 186.817021 55.455319 
L 213.625532 103.710638 
L 184.13617 103.710638 
L 157.32766 151.965957 
L 186.817021 151.965957 
L 213.625532 200.221277 
L 184.13617 200.221277 
L 157.32766 248.476596 
L 244.902128 248.476596 
z
" clip-path="url(#p8467687d51)" style="fill: #f4f4f0; stroke: #3a3a3a; stroke-width: 1.1"/>
   </g>
   <g id="patch_18">
    <path d="M 244.902128 7.2 
L 302.987234 7.2 
L 276.178723 55.455319 
L 305.668085 55.455319 
L 332.476596 103.710638 
L 302.987234 103.710638 
L 276.178723 151.965957 
L 305.668085 151.965957 
L 332.476596 200.221277 
L 244.902128 200.221277 
z
" clip-path="url(#p8467687d51)" style="fill: #b9b9b1; stroke: #3a3a3a; stroke-width: 1.1"/>
   </g>
   <g id="patch_19">
    <path d="M 363.753191 55.455319 
L 305.668085 55.455319 
L 332.476596 103.710638 
L 302.987234 103.710638 
L 276.178723 151.965957 
L 305.668085 151.965957 
L 332.476596 200.221277 
L 302.987234 200.221277 
L 276.178723 248.476596 
L 363.753191 248.476596 
z
" clip-path="url(#p8467687d51)" style="fill: #f4f4f0; stroke: #3a3a3a; stroke-width: 1.1"/>
   </g>
   <g id="patch_20">
    <path d="M 363.753191 7.2 
L 421.838298 7.2 
L 395.029787 55.455319 
L 424.519149 55.455319 
L 451.32766 103.710638 
L 421.838298 103.710638 
L 395.029787 151.965957 
L 424.519149 151.965957 
L 451.32766 200.221277 
L 363.753191 200.221277 
z
" clip-path="url(#p8467687d51)" style="fill: #b9b9b1; stroke: #3a3a3a; stroke-width: 1.1"/>
   </g>
   <g id="patch_21">
    <path d="M 482.604255 55.455319 
L 424.519149 55.455319 
L 451.32766 103.710638 
L 421.838298 103.710638 
L 395.029787 151.965957 
L 424.519149 151.965957 
L 451.32766 200.221277 
L 421.838298 200.221277 
L 395.029787 248.476596 
L 482.604255 248.476596 
z
" clip-path="url(#p8467687d51)" style="fill: #f4f4f0; stroke: #3a3a3a; stroke-width: 1.1"/>
   </g>
   <g id="patch_22">
    <path d="M -111.651064 200.221277 
L -53.565957 200.221277 
L -80.374468 248.476596 
L -50.885106 248.476596 
L -24.076596 296.731915 
L -53.565957 296.731915 
L -80.374468 344.987234 
L -50.885106 344.987234 
L -24.076596 393.242553 
L -111.651064 393.242553 
z
" clip-path="url(#p8467687d51)" style="fill: #b9b9b1; stroke: #3a3a3a; stroke-width: 1.1"/>
   </g>
   <g id="patch_23">
    <path d="M 7.2 248.476596 
L -50.885106 248.476596 
L -24.076596 296.731915 
L -53.565957 296.731915 
L -80.374468 344.987234 
L -50.885106 344.987234 
L -24.076596 393.242553 
L -53.565957 393.242553 
L -80.374468 441.497872 
L 7.2 441.497872 
z
" clip-path="url(#p8467687d51)" style="fill: #f4f4f0; stroke: #3a3a3a; stroke-width: 1.1"/>
   </g>
   <g id="patch_24">
    <path d="M 7.2 200.221277 
L 65.285106 200.221277 
L 38.476596 248.476596 
L 67.965957 248.476596 
L 94.774468 296.731915 
L 65.285106 296.731915 
L 38.476596 344.987234 
L 67.965957 344.987234 
L 94.774468 393.242553 
L 7.2 393.242553 
z
" clip-path="url(#p8467687d51)" style="fill: #b9b9b1; stroke: #3a3a3a; stroke-width: 1.1"/>
   </g>
   <g id="patch_25">
    <path d="M 126.051064 248.476596 
L 67.965957 248.476596 
L 94.774468 296.731915 
L 65.285106 296.731915 
L 38.476596 344.987234 
L 67.965957 344.987234 
L 94.774468 393.242553 
L 65.285106 393.242553 
L 38.476596 441.497872 
L 126.051064 441.497872 
z
" clip-path="url(#p8467687d51)" style="fill: #f4f4f0; stroke: #3a3a3a; stroke-width: 1.1"/>
   </g>
   <g id="patch_26">
    <path d="M 126.051064 200.221277 
L 184.13617 200.221277 
L 157.32766 248.476596 
L 186.817021 248.476596 
L 213.625532 296.731915 
L 184.13617 296.731915 
L 157.32766 344.987234 
L 186.817021 344.987234 
L 213.625532 393.242553 
L 126.051064 393.242553 
z
" clip-path="url(#p8467687d51)" style="fill: #b9b9b1; stroke: #3a3a3a; stroke-width: 1.1"/>
   </g>
   <g id="patch_27">
    <path d="M 244.902128 248.476596 
L 186.817021 248.476596 
L 213.625532 296.731915 
L 184.13617 296.731915 
L 157.32766 344.987234 
L 186.817021 344.987234 
L 213.625532 393.242553 
L 184.13617 393.242553 
L 157.32766 441.497872 
L 244.902128 441.497872 
z
" clip-path="url(#p8467687d51)" style="fill: #f4f4f0; stroke: #3a3a3a; stroke-width: 1.1"/>
   </g>
   <g id="patch_28">
    <path d="M 244.902128 200.221277 
L 302.987234 200.221277 
L 276.178723 248.476596 
L 305.668085 248.476596 
L 332.476596 296.731915 
L 302.987234 296.731915 
L 276.178723 344.987234 
L 305.668085 344.987234 
L 332.476596 393.242553 
L 244.902128 393.242553 
z
" clip-path="url(#p8467687d51)" style="fill: #b9b9b1; stroke: #3a3a3a; stroke-width: 1.1"/>
   </g>
   <g id="patch_29">
    <path d="M 363.753191 248.476596 
L 305.668085 248.476596 
L 332.476596 296.731915 
L 302.987234 296.731915 
L 276.178723 344.987234 
L 305.668085 344.987234 
L 332.476596 393.242553 
L 302.987234 393.242553 
L 276.178723 441.497872 
L 363.753191 441.497872 
z
" clip-path="url(#p8467687d51)" style="fill: #f4f4f0; stroke: #3a3a3a; stroke-width: 1.1"/>
   </g>
   <g id="patch_30">
    <path d="M 363.753191 200.221277 
L 421.838298 200.221277 
L 395.029787 248.476596 
L 424.519149 248.476596 
L 451.32766 296.731915 
L 421.838298 296.731915 
L 395.029787 344.987234 
L 424.519149 344.987234 
L 451.32766 393.242553 
L 363.753191 393.242553 
z
" clip-path="url(#p8467687d51)" style="fill: #b9b9b1; stroke: #3a3a3a; stroke-width: 1.1"/>
   </g>
   <g id="patch_31">
    <path d="M 482.604255 248.476596 
L 424.519149 248.476596 
L 451.32766 296.731915 
L 421.838298 296.731915 
L 395.029787 344.987234 
L 424.519149 344.987234 
L 451.32766 393.242553 
L 421.838298 393.242553 
L 395.029787 441.497872 
L 482.604255 441.497872 
z
" clip-path="url(#p8467687d51)" style="fill: #f4f4f0; stroke: #3a3a3a; stroke-width: 1.1"/>
   </g>
   <g id="patch_32">
    <path d="M -111.651064 393.242553 
L -53.565957 393.242553 
L -80.374468 441.497872 
L -50.885106 441.497872 
L -24.076596 489.753191 
L -53.565957 489.753191 
L -80.374468 538.008511 
L -50.885106 538.008511 
L -24.076596 586.26383 
L -111.651064 586.26383 
z
" clip-path="url(#p8467687d51)" style="fill: #b9b9b1; stroke: #3a3a3a; stroke-width: 1.1"/>
   </g>
   <g id="patch_33">
    <path d="M 7.2 441.497872 
L -50.885106 441.497872 
L -24.076596 489.753191 
L -53.565957 489.753191 
L -80.374468 538.008511 
L -50.885106 538.008511 
L -24.076596 586.26383 
L -53.565957 586.26383 
L -80.374468 634.519149 
L 7.2 634.519149 
z
" clip-path="url(#p8467687d51)" style="fill: #f4f4f0; stroke: #3a3a3a; stroke-width: 1.1"/>
   </g>
   <g id="patch_34">
    <path d="M 7.2 393.242553 
L 65.285106 393.242553 
L 38.476596 441.497872 
L 67.965957 441.497872 
L 94.774468 489.753191 
L 65.285106 489.753191 
L 38.476596 538.008511 
L 67.965957 538.008511 
L 94.774468 586.26383 
L 7.2 586.26383 
z
" clip-path="url(#p8467687d51)" style="fill: #b9b9b1; stroke: #3a3a3a; stroke-width: 1.1"/>
   </g>
   <g id="patch_35">
    <path d="M 126.051064 441.497872 
L 67.965957 441.497872 
L 94.774468 489.753191 
L 65.285106 489.753191 
L 38.476596 538.008511 
L 67.965957 538.008511 
L 94.774468 586.26383 
L 65.285106 586.26383 
L 38.476596 634.519149 
L 126.051064 634.519149 
z
" clip-path="url(#p8467687d51)" style="fill: #f4f4f0; stroke: #3a3a3a; stroke-width: 1.1"/>
   </g>
   <g id="patch_36">
    <path d="M 126.051064 393.242553 
L 184.13617 393.242553 
L 157.32766 441.497872 
L 186.817021 441.497872 
L 213.625532 489.753191 
L 184.13617 489.753191 
L 157.32766 538.008511 
L 186.817021 538.008511 
L 213.625532 586.26383 
L 126.051064 586.26383 
z
" clip-path="url(#p8467687d51)" style="fill: #b9b9b1; stroke: #3a3a3a; stroke-width: 1.1"/>
   </g>
   <g id="patch_37">
    <path d="M 244.902128 441.497872 
L 186.817021 441.497872 
L 213.625532 489.753191 
L 184.13617 489.753191 
L 157.32766 538.008511 
L 186.817021 538.008511 
L 213.625532 586.26383 
L 184.13617 586.26383 
L 157.32766 634.519149 
L 244.902128 634.519149 
z
" clip-path="url(#p8467687d51)" style="fill: #f4f4f0; stroke: #3a3a3a; stroke-width: 1.1"/>
   </g>
   <g id="patch_38">
    <path d="M 244.902128 393.242553 
L 302.987234 393.242553 
L 276.178723 441.497872 
L 305.668085 441.497872 
L 332.476596 489.753191 
L 302.987234 489.753191 
L 276.178723 538.008511 
L 305.668085 538.008511 
L 332.476596 586.26383 
L 244.902128 586.26383 
z
" clip-path="url(#p8467687d51)" style="fill: #b9b9b1; stroke: #3a3a3a; stroke-width: 1.1"/>
   </g>
   <g id="patch_39">
    <path d="M 363.753191 441.497872 
L 305.668085 441.497872 
L 332.476596 489.753191 
L 302.987234 489.753191 
L 276.178723 538.008511 
L 305.668085 538.008511 
L 332.476596 586.26383 
L 302.987234 586.26383 
L 276.178723 634.519149 
L 363.753191 634.519149 
z
" clip-path="url(#p8467687d51)" style="fill: #f4f4f0; stroke: #3a3a3a; stroke-width: 1.1"/>
   </g>
   <g id="patch_40">
    <path d="M 363.753191 393.242553 
L 421.838298 393.242553 
L 395.029787 441.497872 
L 424.519149 441.497872 
L 451.32766 489.753191 
L 421.838298 489.753191 
L 395.029787 538.008511 
L 424.519149 538.008511 
L 451.32766 586.26383 
L 363.753191 586.26383 
z
" clip-path="url(#p8467687d51)" style="fill: #b9b9b1; stroke: #3a3a3a; stroke-width: 1.1"/>
   </g>
   <g id="patch_41">
    <path d="M 482.604255 441.497872 
L 424.519149 441.497872 
L 451.32766 489.753191 
L 421.838298 489.753191 
L 395.029787 538.008511 
L 424.519149 538.008511 
L 451.32766 586.26383 
L 421.838298 586.26383 
L 395.029787 634.519149 
L 482.604255 634.519149 
z
" clip-path="url(#p8467687d51)" style="fill: #f4f4f0; stroke: #3a3a3a; stroke-width: 1.1"/>
   </g>
   <g id="patch_42">
    <path d="M -111.651064 586.26383 
L -53.565957 586.26383 
L -80.374468 634.519149 
L -50.885106 634.519149 
L -24.076596 682.774468 
L -53.565957 682.774468 
L -80.374468 731.029787 
L -50.885106 731.029787 
L -24.076596 779.285106 
L -111.651064 779.285106 
z
" clip-path="url(#p8467687d51)" style="fill: #b9b9b1; stroke: #3a3a3a; stroke-width: 1.1"/>
   </g>
   <g id="patch_43">
    <path d="M 7.2 634.519149 
L -50.885106 634.519149 
L -24.076596 682.774468 
L -53.565957 682.774468 
L -80.374468 731.029787 
L -50.885106 731.029787 
L -24.076596 779.285106 
L -53.565957 779.285106 
L -80.374468 827.540426 
L 7.2 827.540426 
z
" clip-path="url(#p8467687d51)" style="fill: #f4f4f0; stroke: #3a3a3a; stroke-width: 1.1"/>
   </g>
   <g id="patch_44">
    <path d="M 7.2 586.26383 
L 65.285106 586.26383 
L 38.476596 634.519149 
L 67.965957 634.519149 
L 94.774468 682.774468 
L 65.285106 682.774468 
L 38.476596 731.029787 
L 67.965957 731.029787 
L 94.774468 779.285106 
L 7.2 779.285106 
z
" clip-path="url(#p8467687d51)" style="fill: #b9b9b1; stroke: #3a3a3a; stroke-width: 1.1"/>
   </g>
   <g id="patch_45">
    <path d="M 126.051064 634.519149 
L 67.965957 634.519149 
L 94.774468 682.774468 
L 65.285106 682.774468 
L 38.476596 731.029787 
L 67.965957 731.029787 
L 94.774468 779.285106 
L 65.285106 779.285106 
L 38.476596 827.540426 
L 126.051064 827.540426 
z
" clip-path="url(#p8467687d51)" style="fill: #f4f4f0; stroke: #3a3a3a; stroke-width: 1.1"/>
   </g>
   <g id="patch_46">
    <path d="M 126.051064 586.26383 
L 184.13617 586.26383 
L 157.32766 634.519149 
L 186.817021 634.519149 
L 213.625532 682.774468 
L 184.13617 682.774468 
L 157.32766 731.029787 
L 186.817021 731.029787 
L 213.625532 779.285106 
L 126.051064 779.285106 
z
" clip-path="url(#p8467687d51)" style="fill: #b9b9b1; stroke: #3a3a3a; stroke-width: 1.1"/>
   </g>
   <g id="patch_47">
    <path d="M 244.902128 634.519149 
L 186.817021 634.519149 
L 213.625532 682.774468 
L 184.13617 682.774468 
L 157.32766 731.029787 
L 186.817021 731.029787 
L 213.625532 779.285106 
L 184.13617 779.285106 
L 157.32766 827.540426 
L 244.902128 827.540426 
z
" clip-path="url(#p8467687d51)" style="fill: #f4f4f0; stroke: #3a3a3a; stroke-width: 1.1"/>
   </g>
   <g id="patch_48">
    <path d="M 244.902128 586.26383 
L 302.987234 586.26383 
L 276.178723 634.519149 
L 305.668085 634.519149 
L 332.476596 682.774468 
L 302.987234 682.774468 
L 276.178723 731.029787 
L 305.668085 731.029787 
L 332.476596 779.285106 
L 244.902128 779.285106 
z
" clip-path="url(#p8467687d51)" style="fill: #b9b9b1; stroke: #3a3a3a; stroke-width: 1.1"/>
   </g>
   <g id="patch_49">
    <path d="M 363.753191 634.519149 
L 305.668085 634.519149 
L 332.476596 682.774468 
L 302.987234 682.774468 
L 276.178723 731.029787 
L 305.668085 731.029787 
L 332.476596 779.285106 
L 302.987234 779.285106 
L 276.178723 827.540426 
L 363.753191 827.540426 
z
" clip-path="url(#p8467687d51)" style="fill: #f4f4f0; stroke: #3a3a3a; stroke-width: 1.1"/>
   </g>
   <g id="patch_50">
    <path d="M 363.753191 586.26383 
L 421.838298 586.26383 
L 395.029787 634.519149 
L 424.519149 634.519149 
L 451.32766 682.774468 
L 421.838298 682.774468 
L 395.029787 731.029787 
L 424.519149 731.029787 
L 451.32766 779.285106 
L 363.753191 779.285106 
z
" clip-path="url(#p8467687d51)" style="fill: #b9b9b1; stroke: #3a3a3a; stroke-width: 1.1"/>
   </g>
   <g id="patch_51">
    <path d="M 482.604255 634.519149 
L 424.519149 634.519149 
L 451.32766 682.774468 
L 421.838298 682.774468 
L 395.029787 731.029787 
L 424.519149 731.029787 
L 451.32766 779.285106 
L 421.838298 779.285106 
L 395.029787 827.540426 
L 482.604255 827.540426 
z
" clip-path="url(#p8467687d51)" style="fill: #f4f4f0; stroke: #3a3a3a; stroke-width: 1.1"/>
   </g>
  </g>
 </g>
 <defs>
  <clipPath id="p8467687d51">
   <rect x="7.2" y="7.2" width="356.553191" height="453.6"/>
  </clipPath>
 </defs>
</svg>
