<?xml version="1.0" encoding="utf-8" standalone="no"?>
<!DOCTYPE svg PUBLIC "-//W3C//DTD SVG 1.1//EN"
  "http://www.w3.org/Graphics/SVG/1.1/DTD/svg11.dtd">
<svg xmlns:xlink="http://www.w3.org/1999/xlink" width="611.92pt" height="208.44pt" viewBox="0 0 611.92 208.44" xmlns="http://www.w3.org/2000/svg" version="1.1">
 <metadata>
  <rdf:RDF xmlns:dc="http://purl.org/dc/elements/1.1/" xmlns:cc="http://creativecommons.org/ns#" xmlns:rdf="http://www.w3.org/1999/02/22-rdf-syntax-ns#">
   <cc:Work>
    <dc:type rdf:resource="http://purl.org/dc/dcmitype/StillImage"/>
    <dc:date>2026-08-05T09:51:08.495008</dc:date>
    <dc:format>image/svg+xml</dc:format>
    <dc:creator>
     <cc:Agent>
      <dc:title>Matplotlib v3.10.8, https://matplotlib.org/</dc:title>
     </cc:Agent>
    </dc:creator>
   </cc:Work>
  </rdf:RDF>
 </metadata>
 <defs>
  <style type="text/css">*{stroke-linejoin: round; stroke-linecap: butt}</style>
 </defs>
 <g id="figure_1">
  <g id="patch_1">
   <path d="M 0 208.44 
L 611.92 208.44 
L 611.92 0 
L 0 0 
L 0 208.44 
z
" style="fill: none"/>
  </g>
  <g id="axes_1">
   <g id="line2d_1">
    <path d="M 87.036822 38.382219 
L 90.471079 35.051268 
L 93.468246 32.483253 
L 96.041728 30.594091 
L 98.170943 29.273364 
L 100.378773 28.142407 
L 102.68 27.22 
L 105.084978 26.520392 
L 107.586358 26.039707 
L 110.172362 25.769536 
L 112.831214 25.70147 
L 115.551139 25.827101 
L 119.018987 26.243717 
L 122.540858 26.933425 
L 126.093753 27.879802 
L 129.654669 29.066425 
L 133.200608 30.476873 
L 136.708566 32.094721 
L 140.155545 33.903549 
L 143.518544 35.886933 
L 146.77456 38.028451 
L 149.900591 40.311761 
L 152.873423 42.725385 
L 155.669515 45.265426 
L 158.265299 47.928642 
L 160.637206 50.711791 
L 162.761667 53.611629 
L 164.267238 56.013339 
L 165.587293 58.485995 
L 166.709765 61.027938 
L 167.622587 63.637509 
L 168.313692 66.313046 
L 168.771013 69.052891 
L 168.982945 71.854685 
L 168.946832 74.702562 
L 168.668126 77.568422 
L 168.152568 80.423723 
L 167.405902 83.239922 
L 166.43387 85.988477 
L 165.242215 88.640847 
L 163.836681 91.168489 
L 162.223009 93.542861 
L 160.406943 95.735421 
L 158.394762 97.718945 
L 156.200251 99.484628 
L 153.842711 101.037205 
L 151.341568 102.381725 
L 148.716252 103.523236 
L 145.98619 104.466787 
L 143.170811 105.217426 
L 140.289542 105.780202 
L 137.361812 106.160162 
L 133.666411 106.385721 
L 129.966716 106.343379 
L 126.300672 106.042997 
L 122.705495 105.495107 
L 119.194403 104.732245 
L 115.069967 103.61622 
L 99.634391 99.141429 
L 96.247633 98.511576 
L 93.503616 98.188861 
L 90.719232 98.060761 
L 87.889591 98.154189 
L 85.033184 98.471999 
L 82.17704 99.008266 
L 79.348199 99.757053 
L 76.573699 100.712425 
L 73.880582 101.868443 
L 71.295886 103.219171 
L 68.846652 104.758673 
L 66.55992 106.481011 
L 64.462729 108.380248 
L 62.58212 110.450447 
L 60.940216 112.684093 
L 59.54132 115.067945 
L 58.385696 117.587466 
L 57.473607 120.228118 
L 56.805318 122.975364 
L 56.381091 125.814665 
L 56.20119 128.731485 
L 56.26588 131.711286 
L 56.575423 134.73953 
L 57.130084 137.80168 
L 57.930127 140.883198 
L 58.973675 143.961826 
L 60.247425 146.974033 
L 61.734265 149.842551 
L 63.417084 152.490107 
L 64.797514 154.284281 
L 66.271337 155.878095 
L 67.831333 157.238948 
L 69.470283 158.334241 
L 71.180968 159.131371 
L 72.357712 159.481047 
L 73.56099 159.674063 
L 74.787768 159.705148 
L 76.659689 159.464481 
L 78.551689 158.907082 
L 80.443488 158.064469 
L 82.314805 156.968163 
L 84.145361 155.649684 
L 85.914876 154.140552 
L 88.144224 151.886284 
L 90.18093 149.423828 
L 91.976923 146.827899 
L 93.484132 144.173209 
L 94.669478 141.519429 
L 95.554255 138.871658 
L 96.172087 136.222626 
L 96.556594 133.565063 
L 96.741399 130.891698 
L 96.742792 127.516694 
L 96.494382 123.39911 
L 95.768291 116.309027 
L 95.155585 109.603934 
L 94.965507 104.92089 
L 94.963205 103.320334 
L 94.963205 103.320334 
" clip-path="url(#pe956a41797)" style="fill: none; stroke: #3a3a3a; stroke-width: 2.4; stroke-linecap: round"/>
   </g>
   <g id="line2d_2">
    <path d="M 95.838077 92.824316 
L 95.975646 92.035078 
L 96.124107 91.251752 
L 96.283634 90.475001 
L 96.454396 89.705489 
L 96.636565 88.943881 
L 96.830312 88.190839 
L 97.035807 87.447028 
L 97.253223 86.713111 
L 97.482729 85.989753 
L 97.724497 85.277617 
L 97.978698 84.577366 
L 98.245503 83.889666 
L 98.525083 83.215178 
L 98.817609 82.554569 
L 99.123252 81.9085 
L 99.442183 81.277636 
L 99.774573 80.662641 
L 100.120593 80.064179 
L 100.480414 79.482913 
L 100.854207 78.919507 
L 101.242143 78.374625 
L 101.644394 77.848931 
L 102.06113 77.343089 
L 102.492521 76.857762 
L 102.93874 76.393614 
L 103.399958 75.951309 
L 103.876344 75.531512 
L 104.368071 75.134884 
L 104.875309 74.762092 
L 105.39823 74.413797 
L 105.937003 74.090665 
L 106.491802 73.793358 
L 107.062795 73.522542 
L 107.650118 73.278838 
L 108.253334 73.062256 
L 108.871558 72.872317 
L 109.503896 72.708532 
L 110.149449 72.570411 
L 110.807323 72.457464 
L 111.476622 72.369203 
L 112.156448 72.305136 
L 112.845907 72.264774 
L 113.544101 72.247628 
L 114.250135 72.253207 
L 114.963113 72.281022 
L 115.682139 72.330583 
L 116.406315 72.401401 
L 117.134748 72.492985 
L 117.866539 72.604846 
L 118.600793 72.736493 
L 119.336615 72.887438 
L 120.073107 73.057191 
L 120.809374 73.245261 
L 121.544519 73.451159 
L 122.277647 73.674395 
L 123.007862 73.914479 
L 123.734266 74.170922 
L 124.455965 74.443234 
L 125.172062 74.730925 
L 125.88166 75.033505 
L 126.583865 75.350485 
L 127.277779 75.681375 
L 127.962506 76.025684 
L 128.637151 76.382924 
L 129.300817 76.752604 
L 129.952609 77.134235 
L 130.591629 77.527327 
L 131.216982 77.93139 
L 131.827772 78.345934 
L 132.423103 78.77047 
L 133.002078 79.204508 
L 133.563803 79.647558 
L 134.107662 80.09925 
L 134.633762 80.559519 
L 135.142324 81.028348 
L 135.633566 81.50572 
L 136.107709 81.991618 
L 136.564973 82.486026 
L 137.005579 82.988926 
L 137.429745 83.500301 
L 137.837691 84.020135 
L 138.229639 84.54841 
L 138.605807 85.08511 
L 138.966416 85.630218 
L 139.311686 86.183717 
L 139.641836 86.74559 
L 139.957087 87.31582 
L 140.257659 87.89439 
L 140.543771 88.481283 
L 140.815643 89.076483 
L 141.073496 89.679972 
L 141.31755 90.291733 
L 141.548024 90.911751 
L 141.765138 91.540006 
L 141.969112 92.176484 
L 142.160167 92.821167 
L 142.338522 93.474038 
L 142.504398 94.135079 
L 142.658013 94.804275 
L 142.799589 95.481608 
L 142.929345 96.167062 
L 143.047501 96.860619 
L 143.154276 97.562262 
L 143.249892 98.271975 
L 143.334568 98.989741 
L 143.408524 99.715542 
" clip-path="url(#pe956a41797)" style="fill: none; stroke: #3a3a3a; stroke-width: 2.4; stroke-linecap: round"/>
   </g>
   <g id="line2d_3">
    <path d="M 143.44148 110.711054 
L 142.975175 115.893051 
L 142.165538 122.271224 
L 140.594731 134.188693 
L 140.253914 138.396157 
L 140.187778 141.469855 
L 140.35836 144.209273 
L 140.671154 146.003106 
L 141.165394 147.541227 
L 141.861776 148.794633 
L 142.448552 149.457737 
L 143.140499 149.972816 
L 143.943751 150.331275 
L 144.863684 150.52573 
L 145.896062 150.564237 
L 147.631641 150.370579 
L 149.558625 149.931968 
L 153.094749 148.830017 
L 160.7649 146.299191 
L 163.812279 145.584133 
L 166.008224 145.300011 
L 168.086116 145.302975 
L 169.387455 145.49597 
L 170.608825 145.863836 
L 171.741927 146.417121 
L 172.785556 147.144451 
L 173.739657 148.030893 
L 174.604172 149.061514 
L 175.732852 150.845115 
L 176.659652 152.869124 
L 177.384384 155.083142 
L 177.90686 157.436772 
L 178.22689 159.879616 
L 178.344286 162.361277 
L 178.258861 164.831357 
L 177.970424 167.239459 
L 177.478789 169.535185 
L 176.784182 171.670124 
L 175.893404 173.627245 
L 174.818504 175.414555 
L 173.571671 177.040758 
L 172.1651 178.514557 
L 170.610982 179.844654 
L 168.92151 181.039754 
L 166.479402 182.438268 
L 163.847239 183.63289 
L 161.053922 184.64425 
L 158.128351 185.492977 
L 154.329433 186.356615 
L 149.637041 187.156835 
L 144.10153 187.852833 
L 134.865491 188.742814 
L 124.724944 189.522288 
L 116.409373 189.944381 
L 108.946078 190.104387 
L 102.185526 190.041213 
L 95.351481 189.761186 
L 88.355466 189.244911 
L 82.653563 188.622846 
L 77.647206 187.881795 
L 72.675929 186.919877 
L 68.479747 185.892639 
L 64.375924 184.654629 
L 61.048796 183.445798 
L 57.824932 182.062098 
L 54.722119 180.490575 
L 51.75814 178.718274 
L 48.950781 176.732242 
L 46.828092 174.982976 
L 44.329103 172.605606 
L 41.997 170.034259 
L 39.826811 167.288233 
L 37.813565 164.386827 
L 35.95229 161.349339 
L 33.912363 157.551896 
L 32.075524 153.619631 
L 30.433184 149.585892 
L 28.751484 144.796099 
L 27.309182 139.966531 
L 26.096686 135.141849 
L 25.124245 130.326065 
L 24.408178 125.510755 
L 24.010832 121.377336 
L 23.824113 117.232767 
L 23.858297 113.071741 
L 24.123665 108.888951 
L 24.630493 104.679091 
L 25.38906 100.436854 
L 26.409644 96.156934 
L 27.702523 91.834022 
L 29.278063 87.464164 
L 30.81853 83.847562 
L 32.210961 81.074406 
L 33.754655 78.494316 
L 35.016683 76.733863 
L 36.371965 75.160417 
L 37.824001 73.80758 
L 39.376292 72.708955 
L 41.032339 71.898145 
L 42.793454 71.396182 
L 44.651442 71.169433 
L 46.595517 71.169405 
L 49.302897 71.438234 
L 52.836448 72.044736 
L 59.463993 73.214864 
L 62.457522 73.487112 
L 64.699671 73.490647 
L 66.927038 73.270022 
L 69.124251 72.810808 
L 71.272041 72.127488 
L 73.351003 71.235562 
L 75.34173 70.150532 
L 77.224818 68.887898 
L 78.98086 67.463161 
L 80.590449 65.891822 
L 82.034182 64.189381 
L 83.292651 62.37134 
L 84.346451 60.453198 
L 85.176175 58.450457 
L 85.76242 56.378618 
L 86.091981 54.254074 
L 86.173125 52.096309 
L 86.01876 49.925478 
L 85.641797 47.761731 
L 85.055145 45.625223 
L 84.271712 43.536105 
L 83.304408 41.514532 
L 82.166142 39.580655 
L 82.166142 39.580655 
" clip-path="url(#pe956a41797)" style="fill: none; stroke: #3a3a3a; stroke-width: 2.4; stroke-linecap: round"/>
   </g>
   <g id="line2d_4">
    <path d="M 80.869824 37.754628 
L 79.428362 36.056603 
L 77.854666 34.506734 
L 76.161645 33.125146 
L 74.362062 31.926041 
L 72.468356 30.910195 
L 70.492918 30.076538 
L 68.44814 29.424002 
L 66.346416 28.951515 
L 64.200137 28.658009 
L 62.021695 28.542413 
L 59.823483 28.603658 
L 57.617894 28.840674 
L 55.417318 29.252391 
L 53.23415 29.837739 
L 51.080897 30.595591 
L 48.975696 31.52197 
L 46.944733 32.608833 
L 45.014812 33.847823 
L 43.212736 35.230582 
L 41.565309 36.748754 
L 40.099333 38.393982 
L 38.841613 40.157908 
L 37.818952 42.032176 
L 37.058153 44.008428 
L 36.58602 46.078309 
L 36.428518 48.232819 
L 36.587696 50.444703 
L 37.038803 52.666239 
L 37.755667 54.84862 
L 38.712115 56.943043 
L 39.881978 58.900701 
L 41.239082 60.672789 
L 42.757257 62.210502 
L 44.410331 63.465034 
L 45.5744 64.119965 
L 46.779471 64.615604 
L 48.0206 64.955174 
L 49.940875 65.190151 
L 51.919068 65.120919 
L 53.941251 64.775652 
L 55.993495 64.182523 
L 58.061872 63.369709 
L 60.820731 61.992918 
L 63.550495 60.342444 
L 66.21815 58.485072 
L 69.415199 55.974025 
L 72.425583 53.347922 
L 75.82166 50.107048 
L 80.064476 45.737992 
L 80.064476 45.737992 
" clip-path="url(#pe956a41797)" style="fill: none; stroke: #3a3a3a; stroke-width: 2.4; stroke-linecap: round"/>
   </g>
   <g id="line2d_5">
    <path d="M 346.732473 110.546444 
L 346.271892 115.740057 
L 345.48269 122.003025 
L 343.832001 134.60604 
L 343.509362 138.909091 
L 343.484858 142.149283 
L 343.669155 144.45357 
L 344.06856 146.454521 
L 344.528079 147.729819 
L 345.139365 148.79137 
L 345.915603 149.620694 
L 346.869979 150.199311 
L 348.015303 150.509346 
L 349.349239 150.55724 
L 350.84949 150.381484 
L 353.067642 149.869548 
L 356.11153 148.919088 
L 364.020606 146.305908 
L 366.650083 145.668144 
L 369.182647 145.30773 
L 370.984733 145.277436 
L 372.677097 145.498067 
L 373.732701 145.804645 
L 374.723219 146.249147 
L 376.084787 147.160187 
L 377.297198 148.335825 
L 378.360334 149.743949 
L 379.274077 151.352447 
L 380.038308 153.129205 
L 380.65291 155.042112 
L 381.239418 157.748936 
L 381.559428 160.564593 
L 381.61266 163.412964 
L 381.398833 166.217929 
L 380.917668 168.903369 
L 380.381194 170.793266 
L 379.696274 172.551549 
L 378.86998 174.180461 
L 377.910077 175.685552 
L 376.435787 177.509325 
L 374.756177 179.135999 
L 372.889649 180.578732 
L 370.854608 181.850681 
L 368.669459 182.965005 
L 365.75497 184.156294 
L 362.670638 185.147552 
L 359.452409 185.964476 
L 355.464402 186.750851 
L 350.716323 187.457018 
L 343.942522 188.205128 
L 332.364335 189.221497 
L 323.265709 189.80004 
L 315.619649 190.071149 
L 308.640774 190.107963 
L 301.632722 189.918884 
L 295.095753 189.529679 
L 288.403798 188.905849 
L 282.872537 188.170044 
L 277.97002 187.305361 
L 273.72863 186.359451 
L 269.564317 185.214015 
L 265.507609 183.847255 
L 262.139218 182.483069 
L 258.891538 180.926538 
L 255.783795 179.163935 
L 253.314775 177.52778 
L 250.967175 175.731377 
L 248.745667 173.775883 
L 246.64824 171.671878 
L 244.29182 168.966593 
L 242.106664 166.082451 
L 240.088727 163.038541 
L 238.233965 159.853952 
L 236.538333 156.547774 
L 234.755825 152.562358 
L 233.177984 148.467741 
L 231.798388 144.294236 
L 230.45622 139.466804 
L 229.357791 134.614134 
L 228.506292 129.749123 
L 227.907153 124.878986 
L 227.594192 120.619083 
L 227.482244 116.365612 
L 227.574949 112.123407 
L 227.875945 107.8973 
L 228.388871 103.692125 
L 229.117369 99.512715 
L 230.065076 95.363904 
L 231.235632 91.250525 
L 232.632536 87.177469 
L 234.253961 83.151834 
L 236.091243 79.183547 
L 238.13527 75.282723 
L 240.376932 71.459477 
L 242.807114 67.723921 
L 245.416706 64.086172 
L 248.196595 60.556341 
L 251.13767 57.144545 
L 254.230817 53.860896 
L 257.466926 50.71551 
L 260.836885 47.7185 
L 264.33158 44.87998 
L 267.941901 42.210065 
L 271.658735 39.718869 
L 275.47297 37.416505 
L 279.375494 35.313089 
L 283.357195 33.418734 
L 287.408961 31.743554 
L 291.52168 30.297664 
L 295.686241 29.091178 
L 299.89353 28.134209 
L 303.526879 27.520213 
L 307.179168 27.103293 
L 310.8434 26.887184 
L 314.510661 26.8716 
L 318.171871 27.055915 
L 321.817952 27.439497 
L 325.439823 28.021719 
L 329.028405 28.80195 
L 332.57462 29.779562 
L 336.069387 30.953926 
L 339.503628 32.324412 
L 342.868263 33.890391 
L 346.154213 35.651233 
L 349.352398 37.606311 
L 352.453735 39.754992 
L 355.444053 42.094502 
L 358.293881 44.61562 
L 360.97089 47.30792 
L 363.44275 50.160975 
L 365.322596 52.653799 
L 367.018816 55.244984 
L 368.5127 57.928497 
L 369.785539 60.698304 
L 370.818622 63.548371 
L 371.593241 66.472666 
L 372.014268 68.86149 
L 372.248461 71.290727 
L 372.292067 73.751304 
L 372.148927 76.226344 
L 371.823413 78.698428 
L 371.319896 81.150136 
L 370.446842 84.159579 
L 369.558801 86.50175 
L 368.506963 88.766931 
L 367.2957 90.937701 
L 365.929383 92.996641 
L 364.412384 94.926332 
L 362.749074 96.709358 
L 360.945619 98.332964 
L 359.013342 99.797823 
L 356.96449 101.10701 
L 354.811311 102.263602 
L 351.991786 103.499442 
L 349.052308 104.507666 
L 346.016798 105.294282 
L 342.909177 105.8653 
L 339.753366 106.226726 
L 336.573286 106.384568 
L 333.392858 106.344836 
L 330.236002 106.113536 
L 327.126629 105.696688 
L 323.478178 104.972698 
L 319.318274 103.897945 
L 312.922109 101.953284 
L 306.019849 99.902018 
L 301.971577 98.944887 
L 298.460274 98.365405 
L 295.490568 98.103398 
L 292.469948 98.082994 
L 289.405932 98.323753 
L 286.33042 98.820047 
L 283.277035 99.564461 
L 280.279401 100.549582 
L 277.371143 101.767996 
L 274.585885 103.212289 
L 271.957251 104.875049 
L 269.989708 106.357571 
L 268.16114 107.97137 
L 266.488763 109.712651 
L 264.989065 111.577385 
L 263.669034 113.558499 
L 262.52898 115.646778 
L 261.569073 117.832963 
L 260.789486 120.107795 
L 260.19039 122.462015 
L 259.771955 124.886365 
L 259.534353 127.371586 
L 259.477756 129.908419 
L 259.602334 132.487606 
L 259.90826 135.099887 
L 260.545946 138.397671 
L 261.467575 141.714561 
L 262.667882 145.01227 
L 263.815999 147.577538 
L 265.119298 150.024668 
L 266.566877 152.304424 
L 268.14783 154.367571 
L 269.851254 156.164871 
L 271.202633 157.308767 
L 272.612169 158.254658 
L 274.075261 158.981773 
L 275.587308 159.46934 
L 277.14368 159.696742 
L 278.736944 159.657105 
L 280.354694 159.367998 
L 281.984008 158.8495 
L 283.611965 158.121697 
L 285.225644 157.204669 
L 287.332674 155.722327 
L 289.360724 153.986893 
L 291.279167 152.045968 
L 293.057375 149.947156 
L 294.664722 147.738061 
L 296.070579 145.466286 
L 297.245238 143.178511 
L 298.183043 140.89728 
L 298.904146 138.619234 
L 299.429967 136.339741 
L 299.845262 133.481285 
L 300.030741 130.604283 
L 300.008863 127.114662 
L 299.737669 122.972363 
L 298.909209 114.994904 
L 298.408619 109.186036 
L 298.248605 105.153112 
L 298.240455 103.778921 
L 298.240455 103.778921 
" clip-path="url(#pe956a41797)" style="fill: none; stroke: #3a3a3a; stroke-width: 2.4; stroke-linecap: round"/>
   </g>
   <g id="line2d_6">
    <path d="M 299.032698 93.351123 
L 299.144289 92.668622 
L 299.263845 91.990104 
L 299.391473 91.315991 
L 299.527284 90.646706 
L 299.671387 89.982672 
L 299.823889 89.324312 
L 299.984901 88.672049 
L 300.15453 88.026306 
L 300.332887 87.387506 
L 300.52008 86.756072 
L 300.716217 86.132426 
L 300.921409 85.516993 
L 301.135764 84.910193 
L 301.35939 84.312452 
L 301.592398 83.72419 
L 301.834895 83.145833 
L 302.086991 82.577801 
L 302.348795 82.020519 
L 302.620415 81.474409 
L 302.901961 80.939894 
L 303.193542 80.417397 
L 303.495266 79.907341 
L 303.807243 79.410149 
L 304.129581 78.926244 
L 304.46239 78.456049 
L 304.805779 77.999986 
L 305.159855 77.558479 
L 305.524729 77.131951 
L 305.90051 76.720824 
L 306.287306 76.325522 
L 306.685226 75.946467 
L 307.094379 75.584082 
L 307.514874 75.238791 
L 307.946821 74.911016 
L 308.390328 74.60118 
L 308.845504 74.309706 
L 309.312457 74.037017 
L 309.791298 73.783536 
L 310.282135 73.549686 
L 310.785069 73.335881 
L 311.299919 73.14223 
L 311.826135 72.968446 
L 312.363149 72.814217 
L 312.910388 72.679231 
L 313.467282 72.563176 
L 314.03326 72.46574 
L 314.607751 72.386611 
L 315.190185 72.325477 
L 315.779989 72.282025 
L 316.376593 72.255945 
L 316.979427 72.246922 
L 317.587919 72.254647 
L 318.201498 72.278806 
L 318.819593 72.319088 
L 319.441634 72.37518 
L 320.06705 72.446771 
L 320.695269 72.533548 
L 321.32572 72.6352 
L 321.957833 72.751414 
L 322.591037 72.881878 
L 323.224761 73.026281 
L 323.858434 73.184309 
L 324.491484 73.355652 
L 325.123341 73.539997 
L 325.753434 73.737032 
L 326.381193 73.946444 
L 327.006045 74.167923 
L 327.627421 74.401156 
L 328.244748 74.645831 
L 328.857457 74.901635 
L 329.464977 75.168257 
L 330.066736 75.445385 
L 330.662163 75.732707 
L 331.250687 76.02991 
L 331.831738 76.336682 
L 332.404745 76.652713 
L 332.969136 76.977689 
L 333.524342 77.311298 
L 334.069789 77.653228 
L 334.604909 78.003168 
L 335.12913 78.360805 
L 335.64188 78.725828 
L 336.14259 79.097923 
L 336.630687 79.47678 
L 337.105648 79.862106 
L 337.567376 80.253789 
L 338.016011 80.651819 
L 338.451691 81.056185 
L 338.874558 81.466875 
L 339.28475 81.88388 
L 339.682409 82.307187 
L 340.067674 82.736787 
L 340.440686 83.172669 
L 340.801585 83.614822 
L 341.150511 84.063235 
L 341.487603 84.517898 
L 341.813003 84.978799 
L 342.12685 85.445928 
L 342.429285 85.919274 
L 342.720447 86.398826 
L 343.000477 86.884574 
L 343.269516 87.376507 
L 343.527702 87.874614 
L 343.775176 88.378884 
L 344.012079 88.889306 
L 344.23855 89.405871 
L 344.45473 89.928566 
L 344.660758 90.457381 
L 344.856776 90.992305 
L 345.042923 91.533329 
L 345.219339 92.08044 
L 345.386164 92.633628 
L 345.543539 93.192882 
L 345.691603 93.758192 
L 345.830498 94.329547 
L 345.960362 94.906935 
L 346.081336 95.490347 
L 346.193561 96.079771 
L 346.297176 96.675197 
L 346.392322 97.276614 
L 346.479138 97.884011 
L 346.557765 98.497377 
L 346.628343 99.116702 
L 346.691012 99.741974 
" clip-path="url(#pe956a41797)" style="fill: none; stroke: #3a3a3a; stroke-width: 2.4; stroke-linecap: round"/>
   </g>
   <g id="line2d_7">
    <path d="M 509.24 27.22 
L 513.117009 26.969548 
L 516.996516 26.966079 
L 520.8707 27.205155 
L 524.731743 27.682341 
L 528.571823 28.393201 
L 532.383122 29.333299 
L 536.157821 30.4982 
L 539.888098 31.883466 
L 543.566135 33.484662 
L 547.184111 35.297352 
L 550.733714 37.317146 
L 554.188737 39.541329 
L 557.096046 41.654669 
L 559.86004 43.923712 
L 562.44712 46.348138 
L 564.498338 48.549651 
L 566.373734 50.86489 
L 568.052147 53.293655 
L 569.512419 55.835747 
L 570.547411 58.040582 
L 571.403978 60.323861 
L 572.069873 62.685469 
L 572.532975 65.124995 
L 572.786375 67.629401 
L 572.83024 70.168519 
L 572.665239 72.710961 
L 572.292042 75.22534 
L 571.71132 77.680268 
L 570.923742 80.044357 
L 569.929979 82.286221 
L 568.7307 84.374472 
L 567.623758 85.913383 
L 566.387951 87.322387 
L 564.673623 88.903304 
L 562.7864 90.290454 
L 560.742906 91.490916 
L 558.559764 92.51177 
L 556.253597 93.360096 
L 553.34721 94.160319 
L 550.316329 94.734531 
L 547.189679 95.094965 
L 543.995987 95.253857 
L 540.2236 95.200824 
L 536.444671 94.909547 
L 532.704816 94.399454 
L 529.048541 93.690957 
L 524.493495 92.564495 
L 511.550144 89.181598 
L 508.30392 88.661643 
L 505.536805 88.442124 
L 503.235202 88.453289 
L 500.932272 88.668886 
L 498.623999 89.11375 
L 496.320282 89.791417 
L 494.041845 90.688852 
L 491.809702 91.792582 
L 489.644863 93.089133 
L 487.568339 94.565034 
L 485.601143 96.20681 
L 483.764285 98.00099 
L 482.078778 99.9341 
L 480.565633 101.992667 
L 479.245861 104.163219 
L 478.140361 106.43227 
L 477.260777 108.785366 
L 476.602721 111.206369 
L 476.160213 113.678977 
L 475.92727 116.186886 
L 475.897911 118.713791 
L 476.066153 121.243389 
L 476.426017 123.759376 
L 476.971519 126.245449 
L 477.862742 129.166293 
L 479.002336 131.992411 
L 480.134267 134.254823 
L 481.425517 136.415583 
L 482.869408 138.46043 
L 484.789234 140.755565 
L 486.895013 142.875728 
L 489.167455 144.818948 
L 491.58727 146.583253 
L 494.135166 148.166671 
L 496.791853 149.567231 
L 499.538041 150.782959 
L 502.354439 151.811885 
L 505.221756 152.652036 
L 508.120702 153.30144 
L 511.03255 153.758207 
L 513.946512 154.021579 
L 516.857668 154.09164 
L 519.761237 153.968492 
L 522.652435 153.652238 
L 525.526482 153.14298 
L 528.378595 152.440821 
L 531.203992 151.545864 
L 533.997891 150.458211 
L 536.75551 149.177964 
L 539.472068 147.705227 
L 542.583108 145.743883 
L 545.624292 143.521541 
L 549.017351 140.727093 
L 557.27559 133.744052 
L 559.736021 131.982137 
L 561.794989 130.738046 
L 563.868642 129.747843 
L 565.542458 129.170041 
L 567.233081 128.808833 
L 568.943801 128.688263 
L 570.677911 128.832379 
L 572.434567 129.258946 
L 574.191043 129.952506 
L 575.917404 130.886653 
L 577.583713 132.034976 
L 579.160028 133.371063 
L 580.616413 134.868502 
L 581.922928 136.500883 
L 583.049635 138.241794 
L 583.966677 140.064853 
L 584.656728 141.94817 
L 585.128184 143.879078 
L 585.392599 145.846042 
L 585.461528 147.837526 
L 585.346527 149.841997 
L 584.961728 152.348274 
L 584.330161 154.83429 
L 583.474396 157.277515 
L 582.417002 159.655421 
L 581.180546 161.945479 
L 579.787599 164.12516 
L 577.941134 166.563623 
L 575.931248 168.79057 
L 573.772331 170.81541 
L 571.477376 172.650293 
L 569.059377 174.307372 
L 566.531326 175.798798 
L 563.460177 177.345639 
L 560.277554 178.702844 
L 556.53024 180.046481 
L 552.211039 181.327999 
L 547.334862 182.514296 
L 541.457989 183.684038 
L 535.612679 184.633502 
L 529.795811 185.362844 
L 523.997265 185.865874 
L 518.206922 186.136402 
L 512.41466 186.168236 
L 507.094758 185.982446 
L 501.756945 185.586119 
L 496.393425 184.974486 
L 490.998031 184.142117 
L 486.08742 183.178271 
L 481.21635 181.9927 
L 476.90299 180.716227 
L 472.690173 179.223133 
L 469.056093 177.699905 
L 465.549892 175.979345 
L 462.604788 174.302297 
L 459.790316 172.456484 
L 457.121744 170.433654 
L 454.614258 168.22566 
L 452.27613 165.832597 
L 450.103807 163.268673 
L 448.092575 160.54948 
L 446.237721 157.690607 
L 444.303327 154.272288 
L 442.55999 150.715167 
L 441.000675 147.042517 
L 439.457651 142.801669 
L 438.128609 138.477195 
L 437.003532 134.102231 
L 435.983021 129.217983 
L 435.208235 124.324152 
L 434.728624 119.917257 
L 434.46221 115.513292 
L 434.4157 111.117316 
L 434.595806 106.73439 
L 435.009236 102.369574 
L 435.6627 98.027926 
L 436.45049 94.192226 
L 437.43795 90.382383 
L 438.62978 86.601958 
L 440.027173 82.856022 
L 441.623053 79.153215 
L 443.645373 75.05051 
L 445.896657 71.027015 
L 448.365128 67.095764 
L 451.03901 63.269795 
L 453.906526 59.562142 
L 456.9559 55.985842 
L 460.175354 52.55393 
L 463.553112 49.279444 
L 467.077397 46.175417 
L 470.736433 43.254887 
L 474.518443 40.53089 
L 478.411649 38.01646 
L 482.404276 35.724635 
L 486.027221 33.884873 
L 489.711144 32.240451 
L 493.447774 30.800525 
L 497.22884 29.57425 
L 501.04607 28.570782 
L 504.891193 27.799277 
L 508.755939 27.268889 
L 509.24 27.22 
L 509.24 27.22 
" clip-path="url(#pe956a41797)" style="fill: none; stroke: #3a3a3a; stroke-width: 2.4; stroke-linecap: round"/>
   </g>
   <g id="patch_2">
    <path d="M 174.444 98.197984 
L 174.444 113.322016 
L 218.796 105.76 
z
" clip-path="url(#pe956a41797)" style="fill: #3a3a3a; stroke: #3a3a3a; stroke-width: 0.5; stroke-linejoin: miter"/>
   </g>
   <g id="patch_3">
    <path d="M 377.724 98.197984 
L 377.724 113.322016 
L 422.076 105.76 
z
" clip-path="url(#pe956a41797)" style="fill: #3a3a3a; stroke: #3a3a3a; stroke-width: 0.5; stroke-linejoin: miter"/>
   </g>
  </g>
 </g>
 <defs>
  <clipPath id="pe956a41797">
   <rect x="7.2" y="7.2" width="597.52" height="194.04"/>
  </clipPath>
 </defs>
</svg>
